# xmcd
#
# Track frame offsets:
#	150
#	22505
#	38540
#	47142
#	72932
#	95052
#
# Disc length: 1607 seconds
#
# Revision: 1
# Processed by: cddbd v1.5.1PL0 Copyright (c) Steve Scherf et al.
# Submitted via: CDex 1.50Beta5
#
DISCID=40064506
DTITLE=ETERNAL B×DABO - ESDN
DYEAR=2002
DGENRE=Rock
TTITLE0=ETERNAL B×DABO/JOLTY FLOOR
TTITLE1=NUMB/BREAK WITH THE PAST
TTITLE2=ETERNAL B/D.A.H
TTITLE3=NUMB×S-WORD/090
TTITLE4=ETERNAL B×DABO/JOLTY FLOOR(Instrumental)
TTITLE5=NUMB×S-WORD/090(Instrumental)
EXTD=
EXTT0=
EXTT1=
EXTT2=
EXTT3=
EXTT4=
EXTT5=
PLAYORDER=
